<?xml version="1.0" encoding="UTF-8"?>
<svg id="Vectors" xmlns="http://www.w3.org/2000/svg" viewBox="0 0 1682.12 1400.98">
  <path d="M537.68,297.6l-2.96-3.3c-23.11-25.71-17.22-40.86-16.48-42.5l.31-.68.53-.52c73.37-71.87,154.98-118.16,210.53-144.34,62.05-29.24,110.8-42.53,120.68-43.15,21.25-1.34,28.6,31.93,28.91,33.35l.83,3.9-3.89.85c-103.14,22.43-188.83,73.71-242.55,112.77-58.3,42.39-92.59,79.97-92.93,80.34l-2.98,3.28ZM525.35,255.66c-1.2,4.34.17,15.09,12.47,30,9.73-10.15,41.97-42.44,90.88-78.03,53.66-39.05,138.87-90.14,241.61-113.33-2.33-7.62-8.6-23.89-19.53-23.2-7.06.44-52.57,11.68-117.77,42.4-54.82,25.83-135.27,71.44-207.67,142.16Z"/>
  <path d="M851.9,1401.01c-2.02,0-3.09-.02-3.15-.02-229.94,0-410.76-67.78-537.34-201.46-49.28-52.04-90.31-114.3-121.97-185.04-25.3-56.54-44.7-118.59-57.65-184.44-20.17-102.52-18.26-182.8-17.75-196.42-61.53-51.09-89.25-109.61-101.67-149.86C-1.23,439.7,0,408.2.05,406.88l.17-3.85,3.85.03c77.89.59,136.51,25.42,171.96,46.15,32.56,19.03,51.75,37.78,57.4,43.68,94.99-27.14,166.33-29.9,209.57-27.42,47.53,2.73,71.95,12.01,72.97,12.4l2.78,1.08-.24,2.97c-3.4,42.66-15.62,80.4-36.3,112.18-16.56,25.44-38.54,47.1-65.33,64.37-35.87,23.13-70.2,32.02-84.04,34.88,49.24,68.65,92.35,121.42,131.65,161.18,40.06,40.52,78.78,70.16,118.36,90.61,37.04,19.13,76.53,31.38,124.27,38.54,44.66,6.7,93.71,8.65,153.62,9.51,64.89.96,130.8-14.41,195.87-45.62,54.86-26.31,108.02-63.19,158.02-109.62,90.95-84.46,144.26-176.32,146.34-207.53,4.32-64.87-89.02-139.29-89.97-140.03l-8.67-6.84,11.04-.3c50.07-1.37,99.22,3.13,146.08,13.36,96.7,21.12,178.53,83.54,224.49,171.25,45.83,87.46,50.61,189.91,13.09,281.09l-5.49,13.34-2.17-14.26c-8.01-52.8-31.2-89.16-41-102.58-6.62,19.1-21.02,56.23-21.71,58.03l-4.46,11.49-3.14-11.91c-6.37-24.16-17.45-41.43-23.73-49.83-35.93,126.46-94.69,233.83-174.72,319.22-65.3,69.68-144.8,124.95-236.29,164.26-81.36,34.96-157.34,50.57-206.75,57.52-44.4,6.24-75.98,6.79-85.7,6.79ZM8.02,411.11c.12,9.66,1.52,36.52,12.09,70.63,12.23,39.44,39.59,96.95,100.54,146.97l1.57,1.29-.11,2.02c-.05.84-4.33,85.55,17.58,196.72,12.85,65.23,32.08,126.68,57.13,182.64,31.28,69.87,71.81,131.33,120.44,182.69,125.01,131.99,303.86,198.91,531.58,198.91.44.01,34.89.75,87.95-6.73,48.94-6.89,124.17-22.38,204.7-57.03,90.42-38.9,168.96-93.54,233.46-162.4,80.63-86.09,139.44-194.83,174.79-323.19l1.89-6.85,4.88,5.16c.75.79,16.59,17.8,26.9,47.79,6-15.67,16.69-43.84,19.73-53.83l2.1-6.88,4.74,5.41c1.39,1.59,32.01,37.12,44.79,98.25,30.95-85.58,24.65-179.96-17.89-261.12-44.86-85.61-124.73-146.53-219.11-167.14-42.91-9.37-87.79-13.87-133.53-13.39,9.16,7.97,24.64,22.26,39.74,39.91,31.8,37.17,46.94,70.81,45,100-2.22,33.34-55.2,125.86-148.88,212.86-50.59,46.97-104.42,84.31-160,110.97-66.19,31.75-133.29,47.33-199.45,46.4-108.82-1.57-198.65-6.17-281.45-48.94-40.34-20.84-79.72-50.96-120.38-92.09-40.58-41.05-85.12-95.77-136.14-167.28l-3.82-5.35,6.51-.93c.43-.06,43.38-6.5,87.46-35.01,25.77-16.67,46.91-37.53,62.81-62.01,19.39-29.84,31.04-65.22,34.66-105.19-7.63-2.44-30.74-8.84-68.24-10.95-42.9-2.41-113.94.45-208.75,27.83l-2.43.7-1.68-1.89c-.19-.22-19.98-22.25-57.49-44.13-33.96-19.8-89.71-43.45-163.69-44.83Z"/>
  <path d="M199.12,587.07c-3.84,0-7.74-.06-11.7-.18l-13.16-.41,11.17-6.98c.9-.56,91.5-56.57,224.86-89.01l10.59-2.58-6.41,8.81c-.71.98-17.85,24.25-54.54,47.14-32.08,20.02-85.52,43.21-160.81,43.21ZM399.97,501.33c-97.42,25.22-169.95,62.25-197.82,77.73,71.62-.61,122.49-22.68,153.2-41.77,21.6-13.43,36.35-27.2,44.62-35.97Z"/>
  <path d="M521.07,251.76s2.45-116.15,127.87-184.66c128.19-70.02,201.6,0,201.6,0,0,0-231.77,79.34-329.47,184.66Z"/>
  <path d="M581.85,377.06l2.28-7.34c.31-1,8.01-24.89,41.75-59.62,30.79-31.7,90.28-78.97,198.84-124.15l9.12-3.79-3.9,9.07c-.55,1.27-13.83,31.6-50.27,69.59-33.49,34.92-93.72,83.03-190.49,113.91l-7.32,2.34ZM817.64,197.63c-57.91,24.9-133.66,64.43-185.43,117.44-21.56,22.08-32.24,39.73-37.03,49.26,90.04-30.35,146.56-75.62,178.41-108.74,23.61-24.56,37.41-46.14,44.06-57.96Z"/>
  <path d="M675.48,568s-32.75-15.81-28.24-48c4.52-32.19,29.36-53.65,146.82-48,117.46,5.65,100.56-45.18,88.4-64.94,0,0-67.5-137.79-45.48-223.06,22.02-85.27,24.85-82.45,24.85-82.45l21.18-7.34s-11.95,95.44,8.05,135.53c21.6,39.53,68.61,132,71.86,141.18,0,0,56.19,135.81-28.52,229.83-84.71,94.02-204.99,132.14-204.99,132.14,0,0,43.2-46.59-33.88-124.52,0,0-16.85-16.47,2.35-22.87,19.2-6.4,59.48,11.29,79.06,9.79,19.58-1.51,41.79-9.79,51.2-22.96,0,0-34.55,12.7-104.98-24.58-5.34-2.83-15.29-7.07-21.25-8.07-13.04-2.2-30.69-.25-26.43,28.32Z"/>
  <path d="M604.89,538.66s-133.84,126.46-171.11,260.3h0s108.27,170.15,388.49,177.57c5.95.16,11.85,1.17,17.8,1.22,50.08.37,228.43,11.25,423.82-220.84h0s-16.94-76.53-50.82-103.64h0s-92.43,290.63-239.72,248.77c-163.59-46.5,19.29-295.45,117.74-383.45h0s-21.18-28.8-63.53-51.67c0,0,0,0,0,0,0,.02-89.14,295.91-332.05,300.71,0,0,0,0,0,0,0-.01,22.39-47.34,3.66-105.31-8.07-24.97-23.21-47.04-43.01-64.26-16.44-14.3-40.85-38.69-41.97-58.28h0s-2.54-8.19-9.32-1.1h0Z"/>
  <path d="M1634.7,701.95l-10.68-5.61c-49.17-25.83-116.42-67.2-157.58-117.62-25.02-30.65-28.58-50.17-28.72-50.99l-1.17-6.84,6.51,2.42c66.71,24.84,113.82,69.1,141.6,101.85,30.1,35.48,44.24,64.69,44.83,65.91l5.21,10.88ZM1447.97,533.79c3.14,8.05,10.17,22.25,25.31,40.64,37.19,45.17,96.01,83.05,142.7,108.52-6.83-11.75-19.26-31.26-37.58-52.82-26.05-30.68-69.49-71.7-130.43-96.34Z"/>
  <path d="M620.92,84.47s-7.27-28.54,15.65-40.83c23.11-12.39,41.29,9.65,41.29,9.65,0,0-28.92,13.82-56.94,31.18Z"/>
  <path d="M1337.6,138.26c-3.39-6.78-33.04-69.46-56.75-102.27-23.72-32.82-33.04-40.03-63.53-34.1-30.49,5.93-80.47,45.74-117.74,70.31-37.27,24.56-58.45,28.8-107.58,72.53-49.13,43.73-31.34,68.93-17.79,97.73,13.55,28.8,35.58,60.99,35.58,60.99,26.26-23.72,75.39-11.86,112.66,8.47,37.27,20.33,46.59,10.16,49.13,9.32,2.54-.85,78.78-66.07,131.29-102.49,52.52-36.42,38.12-73.69,34.73-80.47ZM1143.46,250.07c-40.32,0-73.01-32.69-73.01-73.01s32.73-71.24,73.01-73.01c39.01-1.71,66,22.72,67.93,65.54,1.81,40.28-27.6,80.47-67.92,80.47Z"/>
  <path d="M385.49,767.29l-53.8-69.3c-21.35,48.11-18.18,88.55-18.18,88.55-35.01-22.59-66.64-15.81-66.64-15.81-21.46,38.4-10.16,98.26-10.16,98.26-76.8-33.88-93.69-5.92-93.69-5.92,31.67,184.95,174.67,337.24,174.67,337.24-36.48-199.51,67.8-433.01,67.8-433.01ZM344.28,759.37c3.43,0,6.21,6.44,6.21,14.39s-2.78,14.39-6.21,14.39-6.21-6.44-6.21-14.39,2.78-14.39,6.21-14.39ZM236.6,977.92c-4.29,0-7.77-8.06-7.77-18s3.48-18,7.77-18,7.77,8.06,7.77,18-3.48,18-7.77,18ZM287.78,880.92c-5.17,0-9.36-9.7-9.36-21.67s4.19-21.67,9.36-21.67,9.36,9.7,9.36,21.67-4.19,21.67-9.36,21.67Z"/>
  <path d="M1095.72,156.34c-.45,2.27-14.88,51.66,29.51,61.17,44.39,9.51,60.57-22.7,63.76-37.92,3.62-17.29-12.63-52.97-48.36-54.66-32.44-1.53-44.91,31.41-44.91,31.41Z"/>
  <path d="M628.06,314.76s21.37-.49,37.82-14.43c8.29-7.02,13.46-18.27,17.8-32.96l-55.63,47.39Z"/>
  <path d="M273.5,540.06s7.08,9.53,30.54.27c21.18-8.36,22.38-20.76,22.38-20.76l-52.92,20.49Z"/>
  <path d="M459.49,470.76s-20.69,58.46,42.4,73.61c0,0,12.39-48.43,12.51-61.25,0,0-18.49-8.14-54.92-12.36Z"/>
  <path d="M1276.03,489.3s33.76-8.91,142.39,11.18c0,0-15.6,96.89-53.44,130.2,0,0,13.52-55.18-88.96-141.38Z"/>
  <path d="M1450.82,888.19s21.46-76.8,6.78-120.85c0,0-13.55,2.26-76.8,11.29,0,0,3.31-77.3-24.32-117.71,0,0-12.1,33.85-53.25,88.9,0,0,95.03,129.72,115.1,372.35,0,0,70.48-70.64,115.3-213.87,0,0-34.24-22.38-82.8-20.12ZM1346.24,759.55c-3.68,0-6.67-6.91-6.67-15.44s2.98-15.44,6.67-15.44,6.67,6.91,6.67,15.44-2.99,15.44-6.67,15.44ZM1409.6,866.57c-4.87,0-8.83-9.15-8.83-20.44s3.95-20.44,8.83-20.44,8.82,9.15,8.82,20.44-3.95,20.44-8.82,20.44ZM1450.47,986.85c-4.23,0-7.65-7.94-7.65-17.73s3.43-17.73,7.65-17.73,7.65,7.94,7.65,17.73-3.43,17.73-7.65,17.73Z"/>
  <path d="M1511.92,586.17c14.86,13.07,53.83,23.75,53.83,23.75,0,0-64.07-55.42-75.35-59.48,0,0,6.67,22.66,21.53,35.73"/>
  <path d="M909.5,284.34c-.94,0-1.89-.27-2.77-.8-1.95-1.16-6.53-3.88-18.99-44.21-6.09-19.72-11.89-41.76-12.92-49.13v-.02c-.09-.67-2.18-16.51-2.05-35.29.18-25.8,4.4-43.79,12.55-53.49,6.47-7.7,13.44-11.01,20.73-9.84,12.16,1.95,20.94,16.4,23.89,23.76,3.42,8.54,6.79,20.81,5.93,47.07-.23,6.92-2.53,16.42-5.2,27.42-4.47,18.42-10.03,41.33-7.26,59.67,3.82,25.29-.17,31.08-9.97,33.87-.77.22-1.51.43-2.18.68-.56.21-1.15.32-1.74.32ZM882.74,189.11c2,14.21,20.5,77.57,27.47,86.84.35-.11.69-.2,1.02-.3,2.91-.83,3.87-1.18,4.64-3.13,1.4-3.53,1.27-10.88-.38-21.86-3-19.88,2.77-43.65,7.4-62.75,2.57-10.57,4.78-19.7,4.98-25.8.81-24.79-2.26-36.07-5.36-43.84-2.23-5.57-9.5-17.51-17.73-18.83-4.3-.69-8.8,1.69-13.33,7.09-6.81,8.11-10.5,24.81-10.67,48.31-.13,18.09,1.92,33.86,1.97,34.26Z"/>
  <path d="M630.61,526.94l-2.22-4.57c-16.61-34.12-90.38-222.74-93.51-230.75-.8-2.06.21-4.38,2.27-5.18,2.06-.8,4.38.21,5.18,2.27.74,1.88,71.03,181.62,91.09,225.55l45.87-37.84-17.49-19.3c-1.48-1.64-1.36-4.17.28-5.65,1.64-1.48,4.17-1.36,5.65.28l23.12,25.51-60.23,49.69Z"/>
  <path d="M1067.71,541.69l-5.16-6.12c.22-.19,22.53-19.14,45.66-50.61,18.34-24.96,29.55-44.19,28.75-62.95-.24-5.7-3.52-9.74-12.11-14.88-5.94-3.56-14.81-7.65-25.08-12.38-21.31-9.82-47.83-22.05-67.23-38.18-23.53-19.56-31.31-41.03-23.13-63.8l7.53,2.71c-16.12,44.85,45.44,73.24,86.18,92.02,10.48,4.83,19.54,9.01,25.84,12.79,8.04,4.82,15.54,10.75,15.99,21.41.89,21.09-10.93,41.67-30.3,68.02-23.73,32.29-46.01,51.2-46.95,51.99Z"/>
  <path d="M1205.62,700.16l-7.66-2.3c.35-1.18,35.58-118.93,43.36-171.39l.02-.12c.28-1.59,28.52-161.05,42.88-307.51l7.96.78c-14.28,145.76-42.28,304.31-42.95,308.08-7.88,53.06-43.24,171.27-43.6,172.46Z"/>
  <path d="M130.24,597.36s-67.72-24.28-94.19-155.29c0,0,108.44-5.43,166.59,75.64,0,0-58.23,25.97-72.4,79.66Z"/>
  <path d="M1275.96,780.04s-158.64,215.38-415.25,217.14c-256.61,1.76-328.09-63.81-434.64-178.18,0,0-94.04,190.29-47.4,436.38,0,0,185.56,147.83,470.17,141.62,0,0,290.54.19,508.23-206.19,0,0,.69-229.32-81.12-410.76ZM1179.42,1151.76c-2.91.36-5.81.81-8.7,1.29-7.72,1.29-26.75,2.62-31.45-14.4-5.93-21.49,16.09-26.57,24.56-29.11s53.36-16.09,57.6-32.19c4.24-16.09-5.08-40.66-50.82-31.34-41.92,9.32-214.07,63.87-242.51,72.91-3.44,1.09-6.23,3.78-7.16,7.27-.85,3.16-.21,6.64,5.72,7.91,13.55,2.54,217.41,75.39,217.41,75.39,0,0,36.42,8.75,25.41,39.81-10.89,30.72-38.12,19.48-88.09,2.54-39.78-13.48-173.09-64.58-220.08-80.04-12.79-4.2-23.12-9.47-30.65-7.96l-9.04,2.73c-9.8,4.77-19.78,9.15-29.92,13.15-34.39,13.57-119.53,46.94-184.67,70.71-83.58,30.49-106.44,51.46-120.85,16.94-14.96-35.86,36.14-46.31,36.14-46.31,0,0,187.48-72.28,214.59-81.32,27.11-9.04-10.16-19.56-10.16-19.56,0,0-45.93-14.7-123.86-35.04s-84.8-21.35-91.48-3.75c-6.81,17.94,26.73,30.12,26.73,30.12,47.44,16.09,36.14,50.82,7.91,48.56-22.38-1.79-65.34-25.8-82.19-35.68-3.58-2.1-7.22-4.1-10.89-6.05-11.35-6.03-42.5-27.45-20.99-72.34,25.98-54.21,94.87-32.75,115.2-25.98,20.33,6.78,259.93,76.8,259.93,76.8l34.84,7.62,296.47-96.33s125.93-46.82,149.08,23.49c21.93,66.59-32.13,110.7-108.09,120.15Z"/>
  <path d="M1044.58,78.17l-7.91,37.4,105.15-70.76-32.05-8.77c-6.25-1.71-12.94-.61-18.31,3.01l-37.51,25.24c-4.8,3.23-8.16,8.21-9.36,13.87Z"/>
</svg>